/* XPM */
static const char *xpm_play[] = {
"32 20 9 1",
" 	c None",
".	c #10120D",
"+	c #425322",
"@	c #000000",
"#	c #A6C56F",
"$	c #C7DAA5",
"%	c #8CB248",
"&	c #20231A",
"*	c #61900C",
"                                ",
"                                ",
"         .++++++++..            ",
"         @#$$$$$$$#..           ",
"         @$$$$$$$$$#%@          ",
"         @#$$$$$$$$$#+.@        ",
"         @%$$$$$$$$#$#%+@       ",
"         .%############%&@      ",
"         @%%#####%##%#%%%*..    ",
"         @*%%%%%%%%%%%%%%%*@.   ",
"         .***********%**%**+@@  ",
"         @******%**********@    ",
"         .***************.@     ",
"         @**************@.      ",
"         .************+@@       ",
"         @***********@.         ",
"         @**********.@          ",
"         @*.*.*.*..@@           ",
"         .&&&&&&&&.             ",
"                                "};
