/* XPM */
static const char *xpm_stop[] = {
"32 20 9 1",
" 	c None",
".	c #110D05",
"+	c #534423",
"@	c #CA8C0E",
"#	c #DBB358",
"$	c #5A503C",
"%	c #EBD5A3",
"&	c #B87606",
"*	c #4C3403",
"                                ",
"       ........   ........      ",
"       .###%##+   +#%#%##.      ",
"       .%%%%%%$   $%%%%%%.      ",
"       .%%%%%%$   $%%%%%%.      ",
"       .%%%%%%$   $%%%%%%.      ",
"       .%%%%%%$   $%%%%%%.      ",
"       .%%%%%#+   $%%%%%#.      ",
"       .##%#%#+   +#%#%##.      ",
"       .######+   +######.      ",
"       .######+   *#####@.      ",
"       .@@@@@@*   *@@@@#@.      ",
"       .@@@@@@*   +@@@@@@.      ",
"       .@@@@@@*   *@@@@@@.      ",
"       .@@@@&@*   *@@&@&@.      ",
"       .&&&&@&*   *&&&&@&.      ",
"       .@&&&@&*   *@@&&&&.      ",
"       .&&&&&&*   *&&&&&&.      ",
"       ........   ........      ",
"                                "};
