/* XPM */
static const char * xpm_nextblack[] = {
"32 20 10 1",
" 	c None",
".	c #000000",
"+	c #0E0606",
"@	c #A24E4E",
"#	c #D29A9A",
"$	c #E6BEBE",
"%	c #3E1616",
"&	c #C27676",
"*	c #5E2222",
"=	c #8E1E1E",
"                                ",
"                  ............. ",
"  +++++++         ............. ",
"   +@#$$#%        ............. ",
"    +@$$$&+       ............. ",
"     +@###&+      ............. ",
"      +@###@+     .+........... ",
"       +@##&*+    ............. ",
"        +@##&@+   ............. ",
"         %&&&&%+  ............. ",
"         +@&&@%+  ............. ",
"        +*&@@@+   ............. ",
"       +=@@@=+    ............. ",
"      +%=@==+     .+........... ",
"     +=====%      ............. ",
"    ++====%       ............. ",
"   +%====%+       ............. ",
"     ++++         ............. ",
"                  ............. ",
"                                "};
