/* XPM */
static const char * xpm_prevblack[] = {
"32 20 10 1",
" 	c None",
".	c #000000",
"+	c #0E0606",
"@	c #3E1616",
"#	c #D29A9A",
"$	c #E6BEBE",
"%	c #A24E4E",
"&	c #C27676",
"*	c #5E2222",
"=	c #8E1E1E",
"                                ",
" .............                  ",
" .............         +++++++  ",
" .............        @#$$#%+   ",
" .............       +&$$$%+    ",
" .............      +&###%+     ",
" ...........+.     +%###%+      ",
" .............    +*&##%+       ",
" .............   +%&##%+        ",
" .............  +@&&&&@         ",
" .............  +@%&&%+         ",
" .............   +%%%&*+        ",
" .............    +=%%%=+       ",
" ...........+.     +==%=@+      ",
" .............      @=====+     ",
" .............       @====++    ",
" .............       +@====@+   ",
" .............         ++++     ",
" .............                  ",
"                                "};
