/* XPM */
static const char *xpm_backward[] = {
"30 20 9 1",
" 	c None",
".	c #0B060F",
"+	c #BB96D1",
"@	c #5D1787",
"#	c #723994",
"$	c #A071BD",
"%	c #D6BEE5",
"&	c #311840",
"*	c #8552A3",
"                              ",
"                              ",
"              &.....          ",
"             &+%%+#.          ",
"            .$%%+*.           ",
"           &*+%+*.            ",
"          .#+%+*.             ",
"         .#++$*.              ",
"        .*$$+*.               ",
"       .&*$+$&                ",
"       .&$$$*.                ",
"        .#***#.               ",
"         .@***@.              ",
"          .@###&.             ",
"           &@@@@&.            ",
"            .@@@@&.           ",
"            .&@@@@..          ",
"             ..@@@@.          ",
"              ......          ",
"                              "};
