/* XPM */
static const char *xpm_markB[] = {
"32 20 9 1",
" 	c None",
".	c #0C0D09",
"+	c #76826A",
"@	c #3E4B32",
"#	c #2E3824",
"$	c #626E55",
"%	c #A7AF9D",
"&	c #22291B",
"*	c #99A290",
"                                ",
"                                ",
"      .#######&                 ",
"      .%%%%%%%+$.               ",
"      .%*@#@#+%*#      ....     ",
"      .*+    .&*+.    .++#.     ",
"      .*$     .++.   .+++.      ",
"      .+$     .++.  .@+$.       ",
"      .+$....&$+#. .@+@.        ",
"      .++++++++@. .@++.         ",
"      .+$$$$$$$$.  .$$&.        ",
"      .$@.....&$@.  .@@&.       ",
"      .@@     .@@&   .@@&.      ",
"      .@#     .@@#   .&@@.      ",
"      .@#     .#@&    ..&&.     ",
"      .@#.&.&..@#.              ",
"      .@####@#@#&               ",
"      ..........                ",
"                                ",
"                                "};
