/* XPM */
static char * systray_xpm[] = {
"32 34 425 2",
"  	c None",
". 	c #E7D3D5",
"+ 	c #EBE0E9",
"@ 	c #9D9A9D",
"# 	c #A1A0A1",
"$ 	c #9B999A",
"% 	c #9D9C9C",
"& 	c #979394",
"* 	c #C1BBBD",
"= 	c #FDDFE6",
"- 	c #EAB2BC",
"; 	c #C06E7D",
"> 	c #E3B4B9",
", 	c #E9DFDF",
"' 	c #939494",
") 	c #949594",
"! 	c #A2A2A2",
"~ 	c #A0A0A0",
"{ 	c #9E9E9E",
"] 	c #9B9B9B",
"^ 	c #828282",
"/ 	c #5D5D5D",
"( 	c #ADA5A7",
"_ 	c #EFCCD3",
": 	c #E1C6CE",
"< 	c #7D797A",
"[ 	c #8C8D8D",
"} 	c #9F9F9F",
"| 	c #A5A5A5",
"1 	c #A6A6A6",
"2 	c #A7A7A7",
"3 	c #9C9C9C",
"4 	c #949494",
"5 	c #8C8C8C",
"6 	c #7E7D7D",
"7 	c #6F6F6E",
"8 	c #EEDBDD",
"9 	c #C499A1",
"0 	c #EBC3C9",
"a 	c #6E6D6D",
"b 	c #8F9090",
"c 	c #989898",
"d 	c #A1A1A1",
"e 	c #747474",
"f 	c #252525",
"g 	c #5B5B5B",
"h 	c #898989",
"i 	c #848484",
"j 	c #757575",
"k 	c #454446",
"l 	c #F5E0E4",
"m 	c #BAB8B8",
"n 	c #8D8D8D",
"o 	c #939393",
"p 	c #A3A3A3",
"q 	c #101010",
"r 	c #6D6D6D",
"s 	c #666666",
"t 	c #232323",
"u 	c #707070",
"v 	c #737373",
"w 	c #3C3C3C",
"x 	c #F2DEDF",
"y 	c #FCF9F9",
"z 	c #444444",
"A 	c #808080",
"B 	c #878787",
"C 	c #CFCFCF",
"D 	c #F5F5F5",
"E 	c #E4E4E4",
"F 	c #8E8E8E",
"G 	c #525252",
"H 	c #787878",
"I 	c #868686",
"J 	c #7E7E7E",
"K 	c #191919",
"L 	c #676767",
"M 	c #2E2E2E",
"N 	c #151615",
"O 	c #CBC0B9",
"P 	c #494849",
"Q 	c #6A6A6A",
"R 	c #767676",
"S 	c #FCFCFC",
"T 	c #FAFAFA",
"U 	c #373737",
"V 	c #9D9D9D",
"W 	c #B0B0B0",
"X 	c #B2B2B2",
"Y 	c #474747",
"Z 	c #4D4D4D",
"` 	c #5E5E5E",
" .	c #2C2C2C",
"..	c #202020",
"+.	c #F7F2F0",
"@.	c #CE9CB0",
"#.	c #F9F1F1",
"$.	c #343434",
"%.	c #F8F8F8",
"&.	c #C8C8C8",
"*.	c #030303",
"=.	c #EDEDED",
"-.	c #6C6C6C",
";.	c #EBEBEB",
">.	c #727272",
",.	c #020202",
"'.	c #0E0E0E",
").	c #3A3A3A",
"!.	c #535353",
"~.	c #272727",
"{.	c #1D1D1D",
"].	c #262626",
"^.	c #F8DFF5",
"/.	c #3A3638",
"(.	c #2F3030",
"_.	c #565656",
":.	c #606060",
"<.	c #F7F7F7",
"[.	c #FDFDFD",
"}.	c #010101",
"|.	c #5C5C5C",
"1.	c #FAFAF4",
"2.	c #0D0D0F",
"3.	c #F4F4F4",
"4.	c #E3E3E3",
"5.	c #D4D4D4",
"6.	c #545454",
"7.	c #484848",
"8.	c #141414",
"9.	c #F7F2F3",
"0.	c #E5D7D8",
"a.	c #353535",
"b.	c #2B2B2B",
"c.	c #323232",
"d.	c #515151",
"e.	c #FBFBFB",
"f.	c #E0E0E0",
"g.	c #777777",
"h.	c #D5D5D3",
"i.	c #B4B495",
"j.	c #D8D9D5",
"k.	c #3B3B3B",
"l.	c #DBDBDB",
"m.	c #D0D0D0",
"n.	c #393939",
"o.	c #151515",
"p.	c #4A4A4A",
"q.	c #ECE7E7",
"r.	c #424242",
"s.	c #D6D6D6",
"t.	c #CECFC6",
"u.	c #B9AC5D",
"v.	c #EABE09",
"w.	c #F3E8D5",
"x.	c #F1F0F0",
"y.	c #E6E6E6",
"z.	c #DDDDDD",
"A.	c #3F3F3F",
"B.	c #181818",
"C.	c #0B0B0B",
"D.	c #282828",
"E.	c #FCF9FA",
"F.	c #E1DEDE",
"G.	c #1E1E1E",
"H.	c #242424",
"I.	c #2A2A2A",
"J.	c #464646",
"K.	c #F9F9F9",
"L.	c #D8D8D8",
"M.	c #D0CC5E",
"N.	c #F9DC00",
"O.	c #FCC502",
"P.	c #EDA800",
"Q.	c #C5B3A1",
"R.	c #BCBCBC",
"S.	c #C6C6C6",
"T.	c #999999",
"U.	c #7D7D7D",
"V.	c #2D2D2D",
"W.	c #131313",
"X.	c #0C0C0C",
"Y.	c #080808",
"Z.	c #060606",
"`.	c #373637",
" +	c #FDF9FB",
".+	c #E4C7E0",
"++	c #6D6D6E",
"@+	c #111111",
"#+	c #161616",
"$+	c #1B1B1B",
"%+	c #FFFFFF",
"&+	c #F2EEB5",
"*+	c #FED700",
"=+	c #FFBD00",
"-+	c #EA9D0A",
";+	c #97999A",
">+	c #ECECEC",
",+	c #F1F1F1",
"'+	c #F2F2F2",
")+	c #F3F3F3",
"!+	c #0F0F0F",
"~+	c #090909",
"{+	c #040404",
"]+	c #C2B8C1",
"^+	c #121212",
"/+	c #FEFEFE",
"(+	c #FFFFFE",
"_+	c #F6F5D6",
":+	c #FECF00",
"<+	c #FDB505",
"[+	c #9B8546",
"}+	c #D8D7D8",
"|+	c #F6F6F6",
"1+	c #F0F0F0",
"2+	c #E9E9E9",
"3+	c #0A0A0A",
"4+	c #000000",
"5+	c #363636",
"6+	c #BABAB9",
"7+	c #FBDCFB",
"8+	c #292827",
"9+	c #FCC605",
"0+	c #DC9E15",
"a+	c #A5A19C",
"b+	c #EFEFEF",
"c+	c #E7E7E7",
"d+	c #E2E2E2",
"e+	c #070707",
"f+	c #BA96B2",
"g+	c #8D828C",
"h+	c #020002",
"i+	c #F3C868",
"j+	c #9D8C65",
"k+	c #DEE3E3",
"l+	c #E5E5E5",
"m+	c #E1E1E1",
"n+	c #1C1C1C",
"o+	c #838383",
"p+	c #BAB9B8",
"q+	c #958E8D",
"r+	c #6B5B6D",
"s+	c #D8D9DC",
"t+	c #DDDCDC",
"u+	c #E6E0CE",
"v+	c #C7C7C7",
"w+	c #E8E8E8",
"x+	c #DFDFDF",
"y+	c #737474",
"z+	c #D0CFCF",
"A+	c #848182",
"B+	c #EEACDE",
"C+	c #FDF6FB",
"D+	c #EEEEEE",
"E+	c #DEDEDE",
"F+	c #D9D9D9",
"G+	c #A8A8A8",
"H+	c #FAF9F9",
"I+	c #F7EDF1",
"J+	c #E9EAE9",
"K+	c #FCD8F7",
"L+	c #EAEAEA",
"M+	c #DADADA",
"N+	c #D1D1D1",
"O+	c #FBE8ED",
"P+	c #BCAFBA",
"Q+	c #EBEBEC",
"R+	c #DCDCDC",
"S+	c #D0D1D1",
"T+	c #626162",
"U+	c #F2C4CF",
"V+	c #988D8F",
"W+	c #E7E8E7",
"X+	c #CACACA",
"Y+	c #C1BEBD",
"Z+	c #D3CBCB",
"`+	c #EEEDED",
" @	c #D5D5D5",
".@	c #D3D3D3",
"+@	c #CECECE",
"@@	c #FCE8EC",
"#@	c #B0999E",
"$@	c #F9F8F8",
"%@	c #C5C5C5",
"&@	c #A9ABAA",
"*@	c #8D696D",
"=@	c #E9DBDD",
"-@	c #D9D8D9",
";@	c #DFE1E1",
">@	c #E0E1E1",
",@	c #E1E2E1",
"'@	c #DADAD9",
")@	c #D5D5D4",
"!@	c #D2D2D1",
"~@	c #CECFD0",
"{@	c #CDCDCB",
"]@	c #9C9D9C",
"^@	c #FDFAFB",
"/@	c #9B6A73",
"(@	c #E1D3D5",
"_@	c #FAF9F2",
":@	c #FD9D30",
"<@	c #FE9A0A",
"[@	c #F7A917",
"}@	c #E7A03D",
"|@	c #E2DEE5",
"1@	c #DCDBDB",
"2@	c #D8D7D7",
"3@	c #DED5CF",
"4@	c #F7A22C",
"5@	c #FED546",
"6@	c #FEDA85",
"7@	c #FCE8A5",
"8@	c #F8DA95",
"9@	c #FEAD21",
"0@	c #FEE7DB",
"a@	c #C8A8AA",
"b@	c #F8C88D",
"c@	c #FCBB02",
"d@	c #FBDD80",
"e@	c #FEF0CD",
"f@	c #F9F6E9",
"g@	c #FAF4D9",
"h@	c #FBE4A4",
"i@	c #FBBD3E",
"j@	c #D1D7CE",
"k@	c #D5D1E1",
"l@	c #D4D4D9",
"m@	c #E2BE84",
"n@	c #FADD71",
"o@	c #FCF3D1",
"p@	c #FBF6E6",
"q@	c #FAF5D4",
"r@	c #FDEAAC",
"s@	c #FBD96B",
"t@	c #FDB415",
"u@	c #FA9401",
"v@	c #E7C4C4",
"w@	c #FDBF0D",
"x@	c #FEC900",
"y@	c #FED502",
"z@	c #FBDF0F",
"A@	c #FDE53F",
"B@	c #FDE66D",
"C@	c #FEE687",
"D@	c #FDDD80",
"E@	c #FDA715",
"F@	c #CFD3C5",
"G@	c #DCBA95",
"H@	c #FECA0A",
"I@	c #FDDD3A",
"J@	c #FDE645",
"K@	c #FCE62D",
"L@	c #FDE217",
"M@	c #FED707",
"N@	c #FFCB01",
"O@	c #FEBD00",
"P@	c #FFA203",
"Q@	c #FDDDEA",
"R@	c #EAB1BE",
"S@	c #F9BF1C",
"T@	c #FED600",
"U@	c #FEE200",
"V@	c #FEEA00",
"W@	c #FEEC00",
"X@	c #FFE401",
"Y@	c #FDD700",
"Z@	c #FDC802",
"`@	c #FDB301",
" #	c #D1BE9E",
".#	c #E3C262",
"+#	c #FBD300",
"@#	c #FFE000",
"##	c #FFEB00",
"$#	c #FFEE00",
"%#	c #FEE300",
"&#	c #FDD601",
"*#	c #FEC401",
"=#	c #FCAA39",
"-#	c #FBDCE5",
";#	c #FBDB44",
">#	c #F9F002",
",#	c #FAF906",
"'#	c #FFF700",
")#	c #FEEE00",
"!#	c #FCDE00",
"~#	c #FED105",
"{#	c #EFB321",
"]#	c #CDD5DF",
"^#	c #EBC786",
"/#	c #FED303",
"(#	c #FDE701",
"_#	c #FEF300",
":#	c #FEFA00",
"<#	c #FEF500",
"[#	c #FEE702",
"}#	c #F8D600",
"|#	c #FCC057",
"1#	c #D29AAE",
"2#	c #E8C3C3",
"3#	c #FDDA9D",
"4#	c #FAE35E",
"5#	c #FEF037",
"6#	c #FDE028",
"7#	c #FEE748",
"8#	c #FBBB65",
"9#	c #EBE5E6",
"0#	c #E5C8D0",
"a#	c #E8D5DC",
"b#	c #F8C991",
"c#	c #FEE440",
"d#	c #FED509",
"e#	c #FBD908",
"f#	c #FEE92F",
"g#	c #FDBF57",
"h#	c #F4F0EB",
"i#	c #D19F90",
"j#	c #D2B3AE",
"k#	c #DCBEC6",
"l#	c #D4CCCA",
"m#	c #DDBCCC",
"n#	c #D6B0A8",
"o#	c #E0CBCE",
"p#	c #EAD6D1",
"q#	c #FAE0DC",
"r#	c #EFDBCB",
"                                                                ",
"                                                                ",
"                      . + @ # $ % & * = -                       ",
"                ; > , ' ) ! ! ~ { ] ^ / ( _                     ",
"                : < [ } | 1 2 2 { 3 4 5 6 7 8 9                 ",
"              0 a b c 3 ! | 1 d e f g h i j k l                 ",
"              m i n o c 3 } p q r e s t u v s w x               ",
"            y z A B C D E F G H I B J v K r L M N O             ",
"            P Q R S S T T T U V W X 3 ^ Y Z `  ...+.@.          ",
"          #.$.L r S %.&.*.=.I -.S ;.>.,.'.).!.~.{.].^.          ",
"          /.(._.:.<.[.}.G |.1.2.<.3.4.2 5.6.7.t K 8.9.          ",
"        0.a.b.c.d.e.<.f.g.h.i.j.k.n M l.m.n.).{.o.q p.          ",
"        q.{.t b.r.r.s.E t.u.v.w.x.y.z.s.A.$...B.q C.D.E.        ",
"        F.B.G.H.I.J.K.L.M.N.O.P.Q.R.S.T.U.V.B.W.X.Y.Z.`. +      ",
"      .+++@+#+$+r %+%+%+&+*+=+-+;+>+,+D '+)+o.!+~+{+}.X.:.S     ",
"      ]+{+C.^+)./+%+%+(+_+:+<+[+}+T |+3.1+>+2+3+3+}.4+{+5+6+    ",
"    7+8+}.Z.^+|+[./+%+%+T 9+0+a+|+%.D '+b+;.c+d+e+4+4+,.].c     ",
"  f+g+h+C.,.C K.T S [.[.e.i+j+k+%.|+)+1+=.2+l+m+B 4+4+}.n+o+p+  ",
"  q+r+s+t+4+,+|+%.K.T e.e.u+v+3.|+3.,+b+;.w+E x+l.,.4+y+..e z+  ",
"    A+B+C+C 1+3.D <.<.%.%.D '+3.)+,+D+;.2+y.d+E+F+G+4+H+I+E.J+  ",
"        K+m+D+1+'+3.3.D D 3.3.'+,+b+>+L+y.4.x+M+s.N+Z.O+        ",
"        P+J+Q+=.b+1+,+'+'+,+1+b+=.>+2+y.4.f.R+L.5.S+T+U+        ",
"        V+)+W+L+;.>+D+D+D+=.=.;.L+w+l+4.f.z.F+s.N+X+Y+          ",
"          Z+`+y.w+2+2+2+2+2+w+c+y.E m+x+R+M+ @.@+@3 @@          ",
"          #@$@m+4.E l+l+y.l+E 4.m+f.E+l.F+s.N+C %@&@            ",
"          *@=@-@x+;@m+>@,@m+f.x+z.R+'@s.)@!@~@{@]@^@            ",
"          /@(@_@:@<@[@}@|@1@l.l.L.2@3@4@5@6@7@8@9@0@            ",
"          a@b@c@d@e@f@g@h@i@j@k@l@m@n@o@p@q@r@s@t@u@            ",
"          v@w@x@y@z@A@B@C@D@E@F@G@H@I@J@K@L@M@N@O@P@Q@          ",
"          R@S@T@U@V@W@X@Y@Z@`@ #.#+#@###$###%#&#*#=#            ",
"            -#;#>#,#'#)#!#~#{#]#^#/#(#_#:#<#[#}#|#              ",
"            1#2#3#4#5#6#7#8#9#0#a#b#c#d#e#f#g#h#                ",
"                i#j#k#l#m#n#        o#p#q#r#                    ",
"                                                                "};
