/* XPM */
static const char *xpm_begin[] = {
"30 20 9 1",
" 	c None",
".	c #030508",
"+	c #5C8CB8",
"@	c #1B5A94",
"#	c #0F2130",
"$	c #7AA3C8",
"%	c #0A3B68",
"&	c #40709B",
"*	c #9BBBD7",
"                              ",
"                              ",
"    .......       .......     ",
"    .&***&.      #+***+#      ",
"    .+***&.     #$***+#.      ",
"    .&***+.    .+***$.        ",
"    .&$*$&.   #+$*$+#         ",
"    .&$$$&.  .&$$$&.          ",
"    .@+++&..#&+$$&#           ",
"    .@+++&..&+++@.            ",
"    .@+&+&&&&+++%.            ",
"    .@@&&@..@&@&@%.           ",
"    .%@@@%. .%@@@@#.          ",
"    .%@@@%.  #%@@@@#.         ",
"    .%%%%%.   .%%%%%#.        ",
"    .#%%%%.    .%%%%%#.       ",
"    .%%%%#.     .#%%%%#.      ",
"    .......      ........     ",
"                              ",
"                              "};
