/* XPM */
static const char *xpm_Kforward[] = {
"32 20 9 1",
" 	c None",
".	c #0E0606",
"+	c #D29A9A",
"@	c #8E1E1E",
"#	c #A24E4E",
"$	c #3E1616",
"%	c #C27676",
"&	c #E6BEBE",
"*	c #5E2222",
"                                ",
"                                ",
"    .......  .......            ",
"    .#+&&+*.  .#+&&+$           ",
"     .#+&&+*   .#&&&%.          ",
"      .#+&+%.   .#+++%.         ",
"       .#++&%$   .#+++#.        ",
"        .#+++#.   .#++%*.       ",
"         .#%+%#.   .#++%#.      ",
"          .#%%%*.   $%%%%$.     ",
"          *#%%%#.   .#%%#$.     ",
"          *#%#@..  .*%###.      ",
"         $@###$.  .@###@.       ",
"        $@##@$.  .$@#@@.        ",
"       .@@@@$.  .@@@@@$         ",
"      .@@@@@.  ..@@@@$          ",
"     .@@@@$.  .$@@@@$.          ",
"     $.....   .......           ",
"                                ",
"                                "};
