/* XPM */
static const char *xpm_markA[] = {
"30 20 9 1",
" 	c None",
".	c #060705",
"+	c #85907A",
"@	c #455336",
"#	c #2F3B24",
"$	c #1F2618",
"%	c #B4BBAD",
"&	c #627056",
"*	c #151A12",
"                              ",
"                  ...         ",
"                 #++&.        ",
"                 @%%+$        ",
"    ....        .+%%%#        ",
"     $&+#.      *+%%%+.       ",
"     .@++#.     @+&@++.       ",
"      .#+&*    .&+*.&&#       ",
"       .#&&*   $&&* $+@.      ",
"        .@&&*  #&#  *&&*      ",
"        .@&#. .&@$  .#&*      ",
"       *@@#.  *@@....#@#      ",
"      .#@#*   #@@####@@@.     ",
"     .$@#.   .$@#@#@@#@#$     ",
"    .#@@.    *#@$$$*$$$@*     ",
"    ....     *#$.     *##.    ",
"            .##*      .##*    ",
"            *$#.       $#$    ",
"                              ",
"                              "};
